<?xml version="1.0" encoding="UTF-8"?><svg id="Layer_1" xmlns="http://www.w3.org/2000/svg" viewBox="0 0 866.11 500"><defs><style>.cls-1{fill:#fff;}</style></defs><path class="cls-1" d="M215.1,500c-8.36-3.66-16.76-7.22-25.08-10.98-40.8-18.47-78.41-41.86-111.02-72.79-30.65-29.08-54.69-62.63-68.36-103.02C2.83,290.11-.94,266.36,.2,242.01c1.75-37.41,13.51-71.71,33.36-103.31,21.41-34.08,49.55-61.7,82.04-85.1,29.33-21.13,61.13-37.75,94.59-51.29C211.86,1.63,213.46,.77,215.1,0c145.33,0,290.67,0,436,0,15.23,6.97,30.73,13.41,45.62,21.05,13.27,6.81,25.86,14.95,38.75,22.5l-.72,.86c-.73-.39-1.5-.72-2.2-1.17-24.9-15.9-51.16-29.14-78.64-39.96-3.15-1.24-6.73-1.98-10.11-1.99-36.15-.14-72.31-.09-108.46-.09-103.96,0-207.93-.02-311.89,.09-3.87,0-8.08,.65-11.55,2.25-19.17,8.84-38.34,17.71-57.13,27.3-10.05,5.13-19.39,11.66-28.95,17.71-1.93,1.22-3.28,3.34-5.16,4.67-2,1.41-4.38,2.27-6.45,3.58-1.04,.66-2.68,2.26-2.48,2.63,.84,1.62,2.16,3.03,3.49,4.32,.52,.51,1.81,.3,2.21,.83,.46,.61,.63,2.34,.41,2.44-3.71,1.71-7.47,3.3-11.3,4.72-.47,.18-1.63-.59-2.01-1.21-2.41-3.87-5.1-2.6-7.63-.37-6.75,5.93-13.6,11.78-20.05,18.03-16.21,15.7-30.46,33.03-42.39,52.23C16.53,169.31,5.11,200.49,2.45,234.43c-2.85,36.44,4.25,71.15,20.34,104,15.99,32.64,38.55,60.14,65.61,84.12,27.35,24.24,57.95,43.58,90.77,59.48,1.76,.85,3.74,1.46,5.68,1.66,5.13,.51,10.29,.76,15.44,1.05,.66,.04,1.35-.28,2.02-.43-.55-.35-1.06-.92-1.66-1.02-4.4-.79-8.82-1.48-13.23-2.23-.61-.1-1.18-.4-1.77-.61,.58-.17,1.18-.51,1.75-.48,4.47,.27,8.94,.83,13.4,.83,2.28,0,4.55-.99,6.83-1.54-1.96-1.02-3.9-2.09-5.89-3.04-.72-.34-1.56-.43-2.34-.63,.85-.34,1.71-.65,2.54-1.01,.9-.39,1.77-.83,2.66-1.24-.97-.68-1.85-1.67-2.93-1.97-2.87-.81-5.85-1.23-8.74-1.96-3.81-.97-7.59-2.04-11.34-3.19-.64-.2-1.08-1.05-1.61-1.6,.52-.3,1.01-.81,1.56-.86,3.6-.36,6.75-.14,10.51-2.5,4.86-3.05,11.58-3.6,17.6-4.21,9.12-.93,18.34-.96,27.51-1.41,2.49-.12,5.12-1.1,7.03,1.45,3.04-3.01,5.25,.82,7.92,.96,1.49,.08,2.97,.47,4.45,.47,3.1,0,6.2-.18,9.3-.28-2.57-1.65-5.15-3.29-7.7-4.97-.46-.3-.8-.77-1.2-1.17,.61-.07,1.23-.18,1.84-.19,7.23-.15,14.49,2.24,21.71-.31,.46-.16,1.16,.54,1.77,.58,6.63,.5,13.26,.97,19.89,1.36,.47,.03,.94-.77,1.49-.97,.69-.25,1.89-.65,2.13-.36,2.03,2.41,4.37,.86,6.51,.56,1.53-.22,2.98-1.04,4.46-1.6-.81-1.34-1.61-2.68-2.42-4.03-1.4-1.33-2.8-2.67-4.2-4,2.35-3.37,2.1-4.29-1.42-5.49-.64-.22-1.18-.71-1.76-1.07,.34-.46,.69-1.33,1.02-1.32,4.01,.04,5.02-2.3,4.84-5.76-.02-.38,.49-1.15,.64-1.13,3.92,.68,6.59-2.45,10-3.18,1.14-.24,2.43,.23,3.66,.37-1.1,1.01-2.08,2.24-3.35,2.96-1.08,.62-2.58,.46-3.73,1.01-.79,.38-1.96,1.7-1.79,2.04,1.21,2.54-.19,2.42-2.1,3.07-2.49,.85-2.49,4.33-.09,4.86,6.94,1.52,9.62,7.59,13.57,12.2,1.29,1.51,2.01,4.32-.52,6.36-4.57,3.69-9.8,5.09-15.56,4.98-.71-.01-1.42,.31-2.13,.47,.68,.36,1.34,.77,2.05,1.06,.98,.41,1.99,.73,2.99,1.09-.96,.46-1.96,.87-2.88,1.4-1.03,.6-1.99,1.32-2.98,1.98,.86,.22,1.78,.33,2.58,.69,1.31,.59,2.5,1.44,3.81,2.01,1.77,.78,3.55,1.68,5.42,2.02,3.06,.55,6.25,.39,9.26,1.09,2.67,.61,5.15,1.99,7.73,3.01,1.45,.58,3.03,.95,4.34,1.75,2.04,1.23,3.68,1.44,5.93,.07,4.86-2.97,10.2-3.72,15.79-2.11,.9,.26,2.46,.48,2.8,.03,3.16-4.19,8.2-2.99,12.25-4.52,1.58-.6,4.28,.75,4.34-2.29,0-.24-2.8-.38-4.19-.86-1.55-.53-2.99-1.4-4.47-2.13,1.15-1.3,2.06-3.31,3.48-3.77,5.49-1.75,11.16-2.98,16.74-4.47,2.03-.54,4.29-.85,5.95-1.99,3.28-2.25,4.98-6.69,9.75-6.94,.32-.02,.93-.78,.85-.98-1.28-3.36,2.37-1.57,2.99-2.9,2.95,1.48,6.31-2.67,9.2,.63,.17,.19,1.46-.15,1.69-.55,.89-1.51,1.31-1.19,2.52-.14,.88,.77,2.86,1.11,3.95,.67,7.89-3.22,16.31-1.55,24.35-2.96,5.97-1.05,11.89,.41,17.36,1.36,5.68,.98,9.84-1.91,14.78-2.07,.55-.02,1.3-.95,1.55-1.62,1.03-2.68,2.1-2.18,3.99-.62,2.97,2.45,6,2.13,9.14-.26,.77-.59,1.72-.97,2.63-1.33,7.03-2.8,14.86-2.89,21.66-6.76,2.52-1.43,6.04-1.51,8.98,.81,1.63,1.28,3.75,2.3,5.78,2.62,4.59,.7,9.26,.94,13.9,1.27,2.73,.19,2.76,1.55,1.33,3.17-2.42,2.74-5.07,5.28-7.61,7.92-.91,.95-1.79,1.93-2.68,2.9,1.06-.45,2.13-.88,3.19-1.34,1.68-.72,3.86-1.02,4.94-2.27,5.64-6.57,14.32-6.73,21.45-9.5,8.54-3.32,18.46-3.13,27.81-4.26,4.27-.52,8.73,.02,12.85-.97,3.93-.95,7.52-.98,11.19,.38,2.78,1.03,5.22,1.11,8.06-.43,1.69-.91,5.33-1.11,6.22-.05,2.39,2.83,5.11,2.26,8,2.46,5.56,.39,11.08-3.81,16.68-.17,.28,.18,1.05-.05,1.4-.33,4.58-3.68,9.85-2.38,14.77-1.61,5.35,.84,11.55-.3,15.5,5.15,.39,.54,1.85,.33,2.82,.42,2.87,.29,5.87,.12,8.58,.92,4.82,1.42,8.56,5.64,14.05,5.57,.67,0,1.38,.78,2.03,1.26,1.45,1.07,1.98,1.76-.12,3.09-6.39,4.04-14.01,4.07-20.84,6.8-4.99,1.99-9.66,4.25-11.86,8.92-.97,2.06-1.66,2.26-3.25,2.35-5.55,.33-10.7,1.79-15.17,5.25-3.48,2.7-3.44,5.63,.47,7.45,3.78,1.76,7.61,2.82,11.86,.37,15.14-8.7,30.43-17.14,45.66-25.68,.24,.29,.48,.58,.72,.86-16.87,11.65-34.94,21.18-53.46,29.85-10.2,4.78-20.6,9.15-30.91,13.7H215.1Z"/><path class="cls-1" d="M735.47,43.56c17.66,10.98,34.05,23.58,49.02,38.02l-.79,.82c-.4-.29-.83-.55-1.21-.87-7.62-6.6-8.78-6.51-15.43,1.1-.36,.42-1.29,.98-1.44,.85-2.56-2.1-4.95-.45-7.34,.3-1.09,.34-2.08,1-3.11,1.52,.73,1.29,1.14,3.25,2.23,3.75,4.1,1.85,3.77,6.41,6.18,9.21-2.53,2.39-1.06,5.45-1.5,8.19-.08,.47-2.31,1.24-2.62,.93-3.88-3.87-7.78-7.77-11.25-12.01-1.08-1.32-1.44-3.81-1.11-5.58,.53-2.81,2.01-5.44,2.86-8.21,.22-.72-.4-1.71-.63-2.57-.67,.21-1.74,.22-1.95,.66-1.55,3.14-2.91,1.76-4.95,.36-1.18-.81-3.31-.22-5.02-.26,.02,1.66,.04,3.31,.04,4.97,0,.49,0,1.39-.13,1.41-1.6,.28-3.78,1.19-4.74,.49-4.45-3.26-8.99,.13-13.49-.67-7.41-1.32-5.59,6.27-8.3,9.56-.11,.13-.29,.32-.25,.41,.27,.78,.37,1.99,.91,2.24,4.64,2.19,10.46,1.02,14.49,3.26,4.58,2.54,7.62,7.84,11.33,11.95-1.95,2.54,.2,3.83,1.59,5.42,.53,.61,.87,1.44,1.1,2.22,.05,.18-.95,.93-1.06,.85-.72-.51-1.5-1.08-1.96-1.82-2.37-3.8-4.59-7.69-7-11.46-.44-.68-1.51-.96-2.29-1.43,.12,.77-.02,1.73,.39,2.27,4.98,6.49,1.98,12.98-.1,19.36-.4,1.22-2.59,2.88-3.62,2.68-3.93-.78-5.28,.42-4.91,4.33,.09,.96-.66,2.28-1.42,3-1.7,1.59-.76,2.18,.52,3.41,2.23,2.14,4.2,4.59,6.03,7.1,1.94,2.67,.06,3.68-2.22,4.66-2.48,1.07-3.58,.51-4.23-2.12-.75-3.05-1-6.7-5.45-7.01-.3-.02-.7-.73-.8-1.18-1.05-4.71-3.57-4.41-6.91-2.24-.42,.28-2.37-.67-2.36-1.02,.15-6.8-2.17-1.86-3.56-.75-.76,.61-1.26,1.61-2.08,2.07-1.99,1.1-.65,1.25,.22,2.2,2.54,2.77,5.85,.96,8.68,1.85,1.98,.62,2.93,.7,.57,2.58-3.63,2.87-3.43,3.43-.37,6.84,1.66,1.85,3.59,3.6,4.73,5.74,1.43,2.68,3.44,5.97,2.96,8.58-1.08,5.84-1.95,12.31-7.46,16.12-2.64,1.82-5.78,2.99-8.83,4.1-2.84,1.03-5.8,1.46-2.85,5.54,.43,.59-.83,2.69-1.69,3.78-.32,.4-2.52,.06-2.58-.21-.27-1.28-.12-2.66-.05-4,.02-.29,.54-.6,.49-.83-.21-1.03-.25-2.45-.92-2.94-.71-.51-2.22-.46-3.11-.05-.96,.44-1.78,1.48-2.36,2.43-2.1,3.45-1.78,5.07,2.9,9.25,3.37,3.01,6.02,6.27,6.49,10.82,.17,1.7,.11,3.97-.86,5.13-2.07,2.49-4.78,4.47-7.31,6.55-.35,.28-1.53,.16-1.81-.19-2.08-2.59-3.87-5.42-6.09-7.88-1.03-1.14-2.77-1.68-4.25-2.35-.35-.16-1.26,.14-1.42,.47-2.55,5.41-.98,11.05,2.65,14.37,4.02,3.68,7.25,6.94,7.46,12.53,.05,1.36,.41,2.7,.62,4.05l-3.67-1.21,.08,.08c-1.81-2.89-3.71-5.71-5.38-8.68-1.45-2.57-2.67-5.27-3.91-7.96-.71-1.54-1.91-3.22-1.75-4.72,.61-6.01-1.32-11.4-3.27-16.86-.83-2.32-1.67-3.25-4.25-1.62-2.92,1.85-3.7,1.13-4.13-2.38-.19-1.56-.66-3.25-1.52-4.55-2.05-3.12-4.35-6.08-6.66-9.03-.35-.45-1.32-.72-1.92-.61-2.25,.4-4.48,.95-6.69,1.54-.59,.15-1.49,.53-1.57,.94-.98,4.74-5.36,6.78-8.09,10.06-3.45,4.15-7.5,7.52-5.78,13.85,.58,2.14-.05,4.61-.13,6.93l.08-.07c-1.02,1.06-2.1,2.06-3.05,3.18-2.74,3.22-3.86,3.05-5.63-.94-1.07-2.42-2.19-4.83-3.15-7.3-2.8-7.26-5.7-14.49-8.19-21.86-.7-2.09,.47-4.9-3.59-2.74-.89,.48-4-1.47-4.87-3-3.65-6.41-8.19-10.06-16.23-9.16-5.12,.57-11.12,1.64-14.77-4.23-.17-.28-1.23-.26-1.73-.05-3.18,1.35-5.89,.45-8.27-1.71-2.04-1.85-3.79-4.05-5.96-5.72-.94-.73-2.61-.5-3.95-.71,.15,1.04,.05,2.22,.51,3.1,.68,1.3,1.68,2.45,2.67,3.54,1.74,1.91,4.61,3.47,5.14,5.63,.79,3.24,2.77,3.5,4.62,2.65,2.24-1.02,3.98-3.13,5.94-4.77,1.52,2.18,1.49,5.64,5.11,6.11,.63,.08,1.31,.4,1.79,.81,2.22,1.89,3.22,3.29,1.69,6.95-3.59,8.59-11.43,11.89-18.17,16.46-4.44,3.01-9.87,4.54-14.78,6.89-1.08,.52-2.76,2.02-2.59,2.49,.65,1.78,1.57,3.69,4.33,2.88,3.17-.93,6.45-1.46,9.65-2.3,4.55-1.19,5.88-.31,4.44,4.11-2.41,7.42-5.25,14.74-10.83,20.56-4.12,4.29-8.13,8.68-12.24,12.99-5.36,5.63-5.45,12.23-3.86,19.28,.86,3.81,1.33,7.71,1.91,11.58,.85,5.74-1.78,8.99-6.79,11.89-4.38,2.54-9.52,5.7-7.08,12.93,1.23,3.66,.07,7.25-4.51,8.62-.88,.26-1.98,1.49-2.08,2.37-.97,8.92-7.29,14.22-13.38,19.48-1.97,1.71-5.11,2.23-7.81,2.88-2.71,.65-5.58,.65-8.33,1.16-3.7,.7-6.07-1.15-6.24-4.83-.1-2.04-.42-4.13-1.03-6.07-1.86-5.94-6-10.99-6.14-17.67-.07-3.32-1.09-6.88-2.59-9.87-2.96-5.9-4.75-11.82-1.93-18.08,2.1-4.66,3.71-8.73,2.32-14.34-1.27-5.14-2.11-10.29-5.36-14.48-3.15-4.05-6.42-7.73-3.46-13.31,.51-.96,.34-2.28,.44-3.44,.42-4.93-.8-6.02-5.9-5.98-1.4,.01-3.72-.65-4.05-1.58-1.7-4.69-5.06-4.18-8.6-3.21-1.9,.52-3.63,1.82-5.55,2.15-5.89,1.03-11.83,1.77-17.76,2.62-.15,.02-.35-.06-.46-.15-4.01-3.39-8.27-6.54-11.94-10.27-2.24-2.28-3.16-5.84-5.4-8.12-4.2-4.28-4.73-8.75-2.95-14.26,.91-2.82,.57-6.11,.5-9.18-.05-2.1-1.57-4.7-.78-6.19,3.56-6.68,5.62-14.42,12.89-18.73,1.83-1.09,3.32-3.74,3.79-5.92,.78-3.65,2.24-6.35,5.36-8.5,1.63-1.12,3.08-3.1,3.62-4.98,.33-1.14-.88-3.43-2.04-4.11-1.28-.75-3.81,.7-3.91-2.33-.06-1.9-.29-3.8-.23-5.69,.06-1.95,.61-3.89,.55-5.82-.12-4.11,.39-4.82,4.65-4.79,2.83,.02,5.68,.07,8.47,.47,2.77,.4,3.45-.8,3.67-3.25,.36-3.99-1.02-6.7-4.83-8.21-.76-.3-1.24-1.32-1.85-2,.82-.4,1.61-.86,2.46-1.18,2.58-1,5.25-1.8,7.74-2.99,1.04-.5,1.71-1.78,2.55-2.7l-.07,.08c1.8-1.13,4.21-1.87,5.27-3.48,1.62-2.47,3.49-3.91,6.29-4.28,2.78-.36,3.82-1.59,2.47-4.33-.43-.87-1.09-2.2-.75-2.76,.89-1.43,2.29-2.55,3.48-3.8,.62,.96,1.26,1.9,1.87,2.87,.38,.6,.72,1.23,1.08,1.85,.77-.58,2.29-1.48,2.2-1.69-.97-2.27-2.03-4.54-3.49-6.5-.26-.35-2.54,.59-3.74,1.21-3.77,1.97-6.46,.96-7.64-3.02-1.48-5-.53-7.46,4.07-10.18,5.95-3.51,11.33-7.44,12.23-15.06,.04-.38,.56-.88,.96-1.03,5.58-1.98,11.09-4.31,16.82-5.67,2.85-.67,6.21,.12,9.18,.88,3.9,1,7.67,2.57,11.45,4,3.1,1.17,6.2,2.39,9.17,3.84,.86,.42,1.87,1.84,1.75,2.62-.14,.87-1.43,2.04-2.37,2.18-1.74,.28-3.58-.21-5.37-.15-1.04,.04-2.81,.31-2.96,.84-.54,1.87,2.44,4.86,4.65,5.02-.2-.67-.67-1.41-.51-1.97,.13-.43,1.17-1,1.61-.86,1.93,.6,3.04,.17,3.9-1.8,.39-.88,1.79-1.44,2.84-1.86,2.54-1.03,2.63-1.23,2.51-3.63-.04-.82,.78-1.67,1.21-2.51,.98,.73,2.58,1.29,2.83,2.23,.68,2.47,.84,2.63,2.98,1.41,2.83-1.62,5.94-4.38,8.69-4.11,3.31,.32,6.3,.26,9.43-.51,.84-.21,1.76-.14,2.64-.2-.73-.61-1.48-1.2-2.17-1.85-.51-.48-.93-1.06-1.39-1.59,.78,.03,1.59-.08,2.33,.1,4.33,1.08,8.65,2.24,12.98,3.33,.45,.11,.97,0,1.45-.02-.29-.43-.53-.92-.89-1.29-2.69-2.75-3.24-7.47-1.03-10.3,.37-.47,1.49-.85,1.99-.63,1.47,.64,3.27,1.29,4.08,2.5,1.48,2.22,2.37,3.81,3.77,.08,.07-.19,1.02-.29,1.06-.2,1.89,4.12,3.72,.13,4.36-.53,2.08-2.13,4.4-2.67,7.15-2.78,1.03-.04,2.03-.94,3.04-1.45-1.43-2.68,1.04-2.84,2.36-3.16,3.67-.88,7.44-1.31,11.12-2.15,1.65-.38,3.81-.88,4.64-2.08,1.91-2.77,4.2-2.56,6.54-1.48,3.03,1.39,6.08,1.69,9.37,1.9,3.73,.24,7.87,.35,9.68,5.28,.59,1.62,3.94,3.61,5.51,3.24,5.98-1.4,11.39,3.62,17.9,.35,3.41-1.71,9.05,.11,12.36,4.36,1,1.28,4.39,2.59,4.58,2.32,1.91-2.56,4.26-.54,6.29-.93,1.9-.37,5.48-.38,5.52-.81,.45-5,4.17-2.87,6.16-2.59,5.51,.78,10.91,2.37,16.39,3.41,3.22,.61,6.52,.73,9.78,1.13,3.1,.38,6.93-.18,9.14,1.45,4.81,3.54,10.08,2.82,14.86,2.16,6.36-.88,12.49-.88,18.74,.13,.66,.11,1.39-.23,2.09-.36-.45-.47-.84-1.02-1.35-1.39-4.82-3.47-9.67-6.91-14.5-10.36,.24-.29,.48-.58,.72-.86Zm-291.49,87.42l-1.13-1.5c-.84,1.01-1.66,2.03-2.52,3.01-1.03,1.17-2.13,2.29-3.14,3.48-1.33,1.57-3.6,3.14-3.67,4.79-.15,3.47-2.39,5.04-4.57,6.61-1.2,.87-3.17,.58-4.7,1.11-.99,.34-1.81,1.2-2.7,1.82,.89,.53,1.82,1.58,2.66,1.51,2.56-.2,5.12-.7,7.61-1.33,3.35-.84,6.59-2.21,9.97-2.78,3.39-.58,6.92-.33,10.36-.67,5.21-.52,6.5,.57,6.03,5.5-.45,4.72,.11,5.34,4.8,6.24,1.74,.33,3.48,.97,5.05,1.8,2.84,1.49,5.51,3.32,8.38,4.76,.34,.17,1.9-1.02,2.09-1.79,1.29-5.18,2.81-5.59,7.83-3.71,4.69,1.76,9.75,2.63,14.71,3.55,1.97,.37,4.12-.06,6.16-.33,1.53-.21,4.03-.4,4.32-1.23,1.14-3.23,1.86-6.68,2.17-10.11,.22-2.4-1-3.63-3.85-2.55-1.45,.55-3.31,.01-4.99-.02-1.02-.02-2.04,0-3.07,0-1.19-.02-2.41,.13-3.55-.12-4.66-1.04-6.05-4.84-7.34-8.78-.36-1.1-1.3-2.92-1.85-2.88-1.26,.1-2.74,.91-3.52,1.92-.42,.55,.27,2.13,.72,3.13,.47,1.03-.78,5.84-1.84,5.74-1.21-.11-3.03-1.02-3.36-2-1.35-4.05-6.1-6.42-5.51-11.41,.06-.53-.94-1.3-1.59-1.77-3.47-2.51-6.96-4.99-10.51-7.39-.83-.56-1.92-.75-2.88-1.1,.27,1.17,.14,2.77,.87,3.43,3.24,2.95,6.73,5.62,10.1,8.42,.86,.71,1.61,1.56,2.41,2.34-.84,0-1.7-.07-2.53,.07-.27,.05-.7,.78-.61,1,1.69,4.03-3.66,4.71-3.72,7.88-1.34-.28-2.73-.44-4.01-.9-.69-.25-1.18-1.03-1.76-1.57,.97-.36,1.94-.69,2.9-1.08,1.42-.57,2.82-1.18,4.23-1.77-.86-1.32-1.63-2.72-2.6-3.95-.6-.75-1.55-1.23-2.3-1.87-2.87-2.43-5.87-4.73-8.52-7.37-1.56-1.56-2.54-2.03-4.58-.69-1.89,1.24-4.29,1.73-6.46,2.55Zm25.37-33.19c4.59,1.44,6.35,.12,5.98-4.57-.14-1.7,.69-4.26,3.78-2.74,.58,.28,1.44-.01,2.17-.04-.57-.72-1.01-1.64-1.74-2.09-.63-.39-1.59-.25-2.4-.34,.74-.7,1.38-1.82,2.24-2.02,2.51-.61,5.12-.78,7.66-1.31,.64-.13,1.13-.98,1.69-1.51-.68-.21-1.41-.68-2.04-.58-1.8,.29-3.56,.84-5.35,1.23-2.86,.63-5.62,.21-6.69-2.76-.96-2.67-2.16-5.78,1.43-7.91,1.11-.66,2.02-1.75,2.78-2.81,.32-.45,.02-1.34,0-2.03-1.75,.47-4.93,.78-5.01,1.45-.35,3.08-2.56,3.97-4.6,5.39-3.02,2.11-3.02,4.36-.4,7.23,.53,.58,1.39,1.74,1.24,1.91-2.3,2.76-4.07,5.68-4.09,9.44,0,.28-1.13,.54-1.73,.84-2.25,1.13-4.5,2.26-6.73,3.43-.4,.21-.7,.58-1.05,.88,.19,.22,.4,.64,.58,.63,3.09-.19,6.19-.35,9.26-.69,1.11-.13,2.17-.73,3-1.03Zm49.19,38.54l.13-.42c.66-.04,1.39,.08,1.98-.14,1.14-.42,2.2-1.04,3.3-1.58-.62-1.05-1-2.42-1.91-3.08-2.54-1.84-5.22-3.54-8.01-4.97-1.18-.61-3.15-1-4.14-.43-3.15,1.82-4.56,.71-6.04-2.18-1.37-2.67-4.1-2.68-5.54-.25-1.33,2.24-2.49,4.61-3.55,6.99-1.14,2.56,.09,4.4,2.51,4.9,1.8,.37,4.08,.32,5.65-.49,3.27-1.7,6.26-1.7,9.54-.28,1.94,.84,4.05,1.29,6.09,1.92Zm32.2,11.6c2.15,.14,3.3-.98,2.22-3.58-.67-1.62-1.83-3.07-2.38-4.72-.27-.81,.17-2.65,.59-2.76,3.3-.81,.24-2.52,.17-2.5-3.69,.66-4.39-3.01-6.36-4.61-3.48-2.82-3.17-3.05,.44-6.01,.69-.57,1.09-2.84,.91-2.94-2.62-1.35-5.21-.81-7.28,1.11-1.59,1.47-5.11,2.27-2.91,5.66,1.87,2.88,4.03,5.58,5.9,8.47,.7,1.08,1.45,2.56,1.25,3.7-.84,4.79,2.02,8.34,7.44,8.18Zm-14.91,63.77c-1.15-3.3-2.03-7.21-3.84-10.63-1.82-3.43-5.78-6.07-6.63-9.58-1.53-6.31-6.34-10.32-8.95-15.75-.43-.89-.99-1.8-1.73-2.4-.5-.41-1.55-.59-2.11-.34-.41,.19-.64,1.27-.56,1.9,.1,.79,.49,1.59,.93,2.28,4.89,7.67,8.13,16.19,12.07,24.31,2.25,4.65,5.82,7.38,8.99,10.82,.38,.41,1.04,.55,1.57,.82l.27-1.44Z"/><path class="cls-1" d="M801.53,98.64c29.18,31,50.21,66.59,59.61,108.36,12.5,55.55,.9,106.85-28.78,154.63-8.88,14.3-18.99,27.7-30.84,39.73l-.85-.73c3.52-4.21,7.06-8.41,10.57-12.63,21.1-25.4,36.95-53.63,45.85-85.57,.54-1.93,1.94-3.87-.24-5.99-.32-.31,2.56-3.17,2.98-5.07,5.49-24.66,6.01-49.52,1.73-74.37-5.42-31.49-17.9-60.19-36.21-86.24-7.64-10.87-16.41-20.95-24.66-31.39l.85-.74Z"/><path class="cls-1" d="M763.45,436.42c-9.33,6.67-18.66,13.35-27.99,20.02-.24-.29-.48-.58-.72-.86,9.32-6.68,18.65-13.35,27.97-20.03,.25,.29,.49,.58,.74,.87Z"/><path class="cls-1" d="M784.48,418.43c-7.01,6-14.02,12-21.03,18-.25-.29-.49-.58-.74-.87,6.99-5.98,13.99-11.96,20.98-17.94,.26,.27,.53,.54,.79,.81Z"/><path class="cls-1" d="M801.52,401.36c-5.68,5.69-11.36,11.38-17.03,17.06-.26-.27-.53-.54-.79-.81,5.66-5.66,11.31-11.32,16.97-16.98,.28,.24,.57,.49,.85,.73Z"/><path class="cls-1" d="M784.49,81.58c5.68,5.69,11.36,11.37,17.04,17.06-.28,.25-.57,.49-.85,.74-5.66-5.66-11.32-11.32-16.98-16.97,.26-.27,.52-.55,.79-.82Z"/><path class="cls-1" d="M314.37,447.13c.35,4.01-1.84,6.28-4.82,4.31-2.09-1.39-3.68-1.68-5.83-1.51-.31,.02-.85-.55-.96-.94-.07-.26,.37-.82,.72-.99,.73-.38,1.54-.62,2.33-.86,1.46-.44,2.93-.84,.57-2.24-.29-.17-.66-.32-.8-.58-.53-1.02-.97-2.08-1.45-3.13,1.23,.05,2.52-.12,3.66,.21,.89,.26,1.6,1.14,2.39,1.75,1.4,1.33,2.8,2.67,4.2,4Z"/><path class="cls-1" d="M266.12,50.96c1.03-.95,2.03-1.94,3.09-2.86,1.47-1.27,2.82-3.14,4.52-3.57,1.88-.47,4.1,.39,6.17,.67-1.53,1.05-2.97,2.83-4.6,3.03-4.58,.55-5.3,3.13-4.51,6.88,.16,.76,.47,1.84,1.02,2.1,1.89,.9,4.12,1.39,1.87,4.13-.16,.19,.16,.78,.26,1.18,.27-.09,.59-.13,.82-.29,1.45-1.01,2.99-1.93,4.3-3.11,1.39-1.26,2.28-2.79-.53-3.47-3.86-.93-2.49-3.6-1.36-5.32,2.44-3.71,6.32-5.28,10.71-5.31,2.26-.01,4.53,.54,6.78,.44,3.99-.18,7.38-.25,9.75,4.22,1.07,2.02,4.8,2.5,7,4.12,.99,.73,1.98,3.39,1.63,3.72-2.37,2.2-.87,2.92,1.04,3.7,.31,.13,.66,.19,.92,.38,1.55,1.14,3.08,2.31,4.62,3.47-1.48,1.26-3.02,2.44-4.41,3.78-1.83,1.77-2.76,.67-3.95-.82-.56-.71-1.76-.91-2.67-1.35,.25,1.08,.18,2.41,.8,3.19,1.42,1.78,2.05,3.41,.28,5.2-.49,.49-1.38,1.03-1.94,.9-1.1-.25-2.1-.95-3.15-1.47,.43,.91,.97,1.78,1.23,2.74,.06,.23-.91,1.11-1.17,1.02-2.7-.99-6.35-1.39-7.78-3.37-2.09-2.89-3.71-4.22-7.21-3.1-.92,.29-2.23-.6-3.36-.95,.99-.76,2.21-2.34,2.93-2.14,4.69,1.32,6.58-3.05,9.83-4.54,.45-.21,.63-1.02,.94-1.55-.59-.17-1.23-.57-1.76-.46-.94,.2-1.77,.88-2.71,1.05-1.03,.19-2.12,.02-3.18,0,.45-.79,.98-1.55,1.33-2.39,.46-1.11,.78-2.28,1.17-3.42-1.02-.2-2.08-.31-3.06-.63-3.81-1.24-6.35,2.11-6.76,4.02-.78,3.6-3.03,4.25-5.57,5.36-2.13,.93-4.59,1.93-.95,4.37,.85,.57,1.07,2.1,1.57,3.19-1.07-.11-2.16-.38-3.22-.28-1.38,.13-2.71,.68-4.09,.8-1.16,.1-2.35-.14-3.53-.24,.27-.89,.5-1.8,.84-2.66,.28-.71,.7-1.36,1.06-2.04-.63,.44-1.22,.96-1.9,1.3-3.82,1.9-7.82,3.48-11.44,5.69-3.49,2.12-6.83,4.63-9.81,7.43-2.08,1.95,.13,6.54,2.99,7.35,1.7,.48,3.25,1.51,4.82,2.38,1.43,.8,2.93,1.56,4.15,2.62,1.54,1.35,5.21-1.14,5.13,2.87-.03,1.85-.37,3.7-.26,5.54,.04,.76,1.01,2.15,1.33,2.09,1.18-.24,3.27-1.04,3.23-1.48-.53-5.95,3.62-8.05,7.81-10.42,1.03-.58,2.14-2.88,1.76-3.77-2.36-5.58,3.33-8.64,3.88-13.25,.05-.46,1.31-1.12,2.01-1.12,4.49-.05,8.79,.69,11.95,4.28,.47,.53,.17,1.69,.32,2.54,.23,1.29,.18,3.24,.94,3.67,.97,.55,2.64-.12,4-.33,.3-.05,.57-.33,.83-.54,1.33-1.06,2.65-2.13,3.97-3.2,.65,1.69,1.33,3.36,1.95,5.06,.39,1.09,1.16,2.32,.93,3.3-.66,2.83,.98,4.18,2.88,5.55,5.83,4.22,6.16,4.93,3.9,11.43-.84,2.43-1.9,4.05,1.98,4.75,.94,.17,1.9,4.2,1.6,6.27-.34,2.33-2.03,.59-3.39,.2-2.61-.75-5.38-1.05-8.1-1.3-2.56-.23-1.71-1.32-.82-2.5,1.2-1.59,2.5-3.11,3.63-4.74,.56-.81,.83-1.83,1.23-2.75-1.05,.36-2.11,.73-3.16,1.09-1.97,.69-3.93,1.46-5.93,2.06-.96,.29-2.77-.46-1.68,1.73-1.03,.01-2.45,.47-3.03-.04-2-1.77-4.04-2.21-6.41-1.09-.41,.19-.68,.68-1.01,1.03,.5,.12,1,.32,1.51,.33,4.24,.06,4.13,.01,2.5,3.73-.5,1.15-.47,3.74-.13,3.84,1.79,.54,3.75,.54,5.65,.63,.99,.05,1.98-.12,2.97-.19-.68,.91-1.17,2.19-2.08,2.67-3.36,1.76-6.81,3.39-10.33,4.81-2.04,.82-2.95,.09-1.93-2.19,.12-.26-.66-1.24-.71-1.22-2.83,1.33-7.24,2.08-8.13,4.26-2.51,6.12-9.37,6.38-12.72,11.03-1.36,1.88-3.41,3.26-5.1,4.91-.28,.28-.49,.87-.41,1.25,1.07,4.91-2.71,6.54-5.78,8.68-2.57,1.8-5.19,3.55-7.65,5.5-2.46,1.96-2.84,4.56-2.34,7.65,.5,3.06,.46,6.22,.38,9.33-.02,.71-1.14,1.88-1.85,1.95-.62,.06-1.71-.98-1.99-1.76-.73-1.99-1.59-4.11-1.55-6.16,.06-2.98-.12-5.03-3.91-4.45-.69,.11-1.47-.74-2.25-.82-1.96-.22-4.93-1.14-5.76-.22-3.72,4.13-7.84,1.35-11.79,1.45-4.79,.12-9.66,4.79-10.74,9.77-.45,2.08-1.34,4.08-2.18,6.06-1.88,4.43-.68,8.61,1.51,12.37,.79,1.36,3.3,2.58,4.89,2.42,2.89-.28,6.69,.08,7.69-4,.83-3.39,3.35-4.31,6.27-4.63,1.09-.12,2.24,.33,3.36,.52-.23,1.08-.31,2.21-.7,3.22-1.22,3.07-2.58,6.09-3.85,9.15-.77,1.85-.73,2.89,1.9,3,9.66,.4,9.78,.53,7.77,10.09-.58,2.77-.02,4.69,1.64,6.84,1.63,2.12,3.06,2.47,5.51,1.44,1.47-.62,4.02-.91,4.99-.07,3.63,3.12,4.71,.66,5.92-2.13,1.93-4.45,7.34-3.37,10.16-6.4,.34,.41,1.07,.96,.98,1.22-.97,2.75,.77,2.29,1.6,1.08,1.25-1.82,2.33-1.03,3.14-.15,2.24,2.45,5.34,2.51,8.18,3.26,.87,.23,2.14,.44,2.73,0,2.52-1.88,4.35-1.16,6.32,.9,2.6,2.72,5.56,5.09,8.12,7.84,1.88,2.01,3.55,3.52,6.68,3.37,5.58-.27,9.38,3,11.33,8.53,1.77,5.01,3.49,9.91,10.13,10.76,3.74,.48,6.14,4.8,10.36,4.78,4.76-.02,8.62,1.72,11.74,5.35,1.59,1.85,5.16,.64,5.96,4.37,.93,4.29,.39,7.86-2.28,11.23-1.03,1.29-2.04,2.6-3.01,3.94-2.66,3.68-3.45,7.51-3.38,12.29,.07,5.39-2.15,10.91-4,16.15-.54,1.54-3.14,2.43-4.9,3.44-3.24,1.85-6.65,3.43-9.79,5.44-.91,.58-1.78,2.4-1.55,3.38,1.44,6.08-1.93,10.34-5.06,14.79-.84,1.2-1.28,2.68-1.92,4.03-2.41,5.02-2.98,5.47-8.76,4.79-2.41-.28-.97,.7-.77,1.45,.52,1.94,1.64,3.99,1.36,5.82-.52,3.36-3.65,4.16-6.49,4.37-2.44,.18-3.78,.8-3.49,3.47,.26,2.39-1.29,2.69-3.17,2.67-.55,0-1.1,.41-1.65,.64,.39,.63,.67,1.68,1.19,1.81,2.03,.51,2.58,.79,.85,2.77-1.8,2.07-3.08,4.71-4.06,7.3-.27,.7,1.16,2.57,2.22,3.14,2.11,1.12,2.57,2.17,1.33,4.3-4.4,7.54-3.07,11.96,4.66,16.13,.81,.44,1.57,.97,2.35,1.46-.84,.43-1.7,1.26-2.52,1.23-2.87-.1-6.02,.17-8.55-.91-6.92-2.96-11.82-8.22-14.5-15.31-.5-1.31-.12-2.94-.19-4.42-.03-.71,.06-1.57-.3-2.09-1.87-2.7-1.52-3.7,.34-7.21,.76-1.43-.2-3.78-.38-5.71-.22,.06-.47,.07-.65,.18-1.91,1.19-1.89,1.2-2.15-1.28-.8-7.45-2.27-14.8-.59-22.44,.7-3.17-.95-6.8-1.09-10.24-.31-7.58-.43-15.18-.47-22.77-.04-7.06-2.44-12.46-9.31-15.48-3.87-1.7-6.33-4.6-8.2-8.78-2.95-6.59-7.36-12.5-10.95-18.82-.92-1.63-2.13-4.53-1.43-5.38,2.3-2.79,.79-5.39,.79-8.13,0-4.8,3.47-7.98,6.23-11.39,2.91-3.6,2.6-13.65-.82-16.57-.28-.23-2.4,.79-2.52,1.44-.55,3.06-1.71,2.57-3.67,1.16-2.87-2.07-5.99-3.8-8.85-5.88-.76-.55-1.03-1.83-1.42-2.82-1.26-3.2-3.01-5.88-6.6-6.85-3.89-1.06-7.55-2.43-9.95-6.1-.61-.93-2.65-2.02-3.25-1.68-4.95,2.86-8.58-.82-12.56-2.33-2.29-.87-4.56-2.11-6.43-3.67-2.47-2.07-6.21-3.55-4.21-8.36,.65-1.56-.52-4.21-1.46-6.05-2.06-4.03-4.63-7.8-6.75-11.81-1.27-2.39-1.97-5.08-3.12-7.54-.47-1-1.46-1.75-2.22-2.62-.27,1.15-1.04,2.47-.72,3.43,1.85,5.61,3.99,11.12,5.94,16.7,.28,.8,0,1.78-.02,2.68-.69-.48-1.64-.81-2.03-1.47-1.02-1.73-1.79-3.61-2.67-5.42-.42-.85-.68-1.98-1.37-2.47-1.9-1.36-4.13-2.34-1.68-5.15,.29-.33-.34-1.49-.57-2.26-.75-2.5-1.94-4.95-2.16-7.49-.27-3.14-1.03-5.49-4.27-6.51-.58-.18-1.44-.67-1.52-1.13-1.02-5.91-4.21-11.73-1.35-17.87,2.01-4.33,4.39-8.49,6.45-12.81,1.85-3.88,4.04-7.86-.35-11.63-.45-.38-.87-1.62-.77-1.69,4.26-2.96-.4-7.06,1.33-10.33,.22-.41-.13-1.65-.28-1.66-5.15-.36-3.96-4.61-4.27-7.49-.4-3.66-2.64-5.16-5.54-6.27-2.71-1.03-5.46-1.96-8.22-2.85-.59-.19-1.77-.2-1.87,.03-1.28,3.15-4.4,2.48-6.74,3.14-1.3,.37-3.48,3.28-4.44-.55-1.52,1.02-3.88,1.73-4.39,3.12-1.63,4.46-1.9,4.75-6.99,3.46-.92-.23-2.12,.54-3.16,.93-4.5,1.7-8.95,3.51-13.49,5.1-.86,.3-2.01-.2-3.03-.34,.82-.51,1.58-1.14,2.46-1.5,3.82-1.56,7.7-2.97,11.49-4.59,.82-.35,1.37-1.32,2.05-2.01-.86-.29-1.72-.56-2.57-.86-1.16-.41-2.32-.84-3.48-1.26,2.43-2.87-4.7-1.56-2-4.57,1.38-1.53,2.43-3.74,4.14-4.52,3.38-1.53,7.13-2.23,10.69-3.4,.86-.28,1.57-1.04,2.35-1.58-.82-.26-1.7-.4-2.45-.8-1.64-.87-4.86,1.9-5.08-1.91-.18-3.24,3.02-2.48,4.81-3.08,1.84-.62,3.68-1.75,5.96,0,1.34,1.03,2.92-.23,1.89-2.35-1.95-4-.22-4.86,3.65-5.43,3.84-.57,7.56-2.29,11.21-3.79,7.25-2.97,14.48-2.21,21.77-.34,5.68,1.46,11.73,.85,17.22,3.92,1.69,.95,4.97-.83,7.48-1.52,5.63-1.55,11.27-2.06,17.04-.81,4.58,.99,9.19,1.86,13.78,2.8,.32,.06,.88,.33,.86,.39-.63,2.46,.37,2.94,2.69,2.73,2.07-.19,4.19,.29,6.29,.36,.3,0,.61-.61,.92-.94-.46-.36-.94-1.03-1.39-1.02-2.88,.07-5.42-.45-8.07-1.95-1.95-1.1-2.72-1.22-1.12-3.3,.73-.96,.46-2.68,.65-4.06-1.03,.32-2.04,.7-3.09,.95-.96,.23-2.05,.12-2.92,.52-1.91,.88-3.48,.42-3.88-1.46-.17-.8,1.27-2.1,2.19-2.93,.98-.88,2.26-1.4,3.33-2.19,5.26-3.92,10.54-3.63,16.01,.47,1.43,1.07,4.6,2.14,5.27,1.49,2.03-2,2.44,2.9,4.35,.54,1.1-1.35,3.21-1.93,4.95-2.67,.66-.28,1.54-.04,2.31-.04-.39,.72-.73,1.48-1.18,2.16-1.51,2.25-4.71,4.26-.81,7.18,.26,.19,.04,1.7-.38,2.02-2.07,1.53-4.18,3.12-7.09,2.28-.29-.08-.83,.7-1.25,1.08,2.38,.43,4.76,1.12,7.15,1.17,1.22,.03,3.59-1.49,3.54-1.65-1.19-3.4,2.69-1.9,3.24-3.48,.97,.79,2.06,1.49,2.84,2.44,.19,.23-.66,1.3-1.03,1.99,.79-.2,1.79-.16,2.3-.65,.65-.61,1.33-2.35,1.25-2.4-3.65-2.26,.56-3.87,.43-5.78l2.15-1.09Z"/><path class="cls-1" d="M730.47,337.29c-5.2,1.93-10.33,4.1-15.62,5.72-5.58,1.71-11.26,3.27-17.01,4.15-3.23,.49-3.47-1.77-2.47-5,1.23-3.99,1.29-8.36,1.68-12.59,.39-4.21,.32-8.47,.86-12.66,.75-5.79,5.63-7.78,10.09-9.82,2.52-1.15,5.39-1.5,8.05-2.39,1.21-.41,2.85-.97,3.3-1.93,2.13-4.5,6.62-6.7,9.61-10.32,3.31-4.01,4.24-4.08,9.23-2.04,.66,.27,2.51-.5,2.58-.98,.73-4.7,6.13-4.51,8.08-7.88,.12-.21,1.2,.02,1.79,.2,1.26,.38,2.49,.9,3.75,1.28,1.6,.49,3.23,.91,4.84,1.35-1.77,1.31,.46,4.72-2.78,5.38-.12,.02-.27,2.17,.23,2.67,1.53,1.49,3.36,2.69,5.11,3.94,3.74,2.68,4.66,2.5,6.24-1.91,1.39-3.89,2.28-7.96,3.53-11.91,.26-.82,1.11-1.45,1.69-2.17,.39,.82,.98,1.61,1.15,2.47,1.24,6.22,5.3,11.7,4.75,18.39-.05,.56,.34,1.38,.8,1.71,5.55,4.07,6,10.98,8.82,16.5,1.29,2.52,.27,7.05-1.16,9.94-2.16,4.36-5.51,8.15-8.51,12.05-1.82,2.36-4.55,4.2-5.81,6.79-2.68,5.51-7.64,7.71-12.79,8.79-3.99,.84-8.6,1.03-12.53-1.18-.85-.48-1.13-2.11-1.5-3.27-.81-2.55-1.5-5.14-2.36-7.67-.02-.05-1.66,.14-2.2,.62-1.72,1.5-2.07,1.55-2.51-1.03-.91-5.29-3.04-6.6-8.92-7.19Z"/><path class="cls-1" d="M291.37,43.94c-2.64-.15-5.28-.27-7.91-.47-1.87-.15-4.58,.38-2.93-3.15,.1-.21-.5-1.04-.63-1.01-.57,.15-1.49,.42-1.57,.8-.82,4.07-2.82,3.88-5.63,1.81-.47-.34-1.49,.17-2.21,.05-1.89-.32-3.81-.63-5.61-1.26-.74-.26-1.21-1.33-1.8-2.03,.91-.18,1.82-.35,2.73-.54,1.58-.33,3.28-1.2,4.72-.88,1.7,.37,3.23,2.56,4.74,2.47,1.23-.08,2.23-2.47,3.55-3.57,.4-.33,1.56,.4,2.36,.37,3.1-.13,6.22-.2,9.28-.66,1.12-.17,2.08-1.38,3.11-2.11-1.1-.09-2.24-.4-3.3-.22-3.13,.52-4.06-2.02-4.74-3.92-.28-.79,1.57-2.83,2.87-3.6,2.75-1.65,5.72-2.79,8.54,.23,.43,.46,2.7,2.05,1.3-.98-1.03-2.22,.85-2.47,2.32-2.65,12.6-1.53,25.12-4.25,37.94-2.65,.33,.04,.76-.07,.98,.11,5.36,4.23,11.55,.95,17.3,1.75,3.18,.44,6.63-1.22,9.98-1.8,10.82-1.86,21.65-3.65,32.46,.01,.72,.24,1.63,.74,1.9,1.37,1.38,3.1,4.04,2.3,6.42,2.22,.97-.03,1.95-.77,2.87-.68,1.54,.16,3.04,.72,4.56,1.11-1.19,.69-2.35,1.48-3.59,2.06-2.39,1.12-4.93,1.96-7.24,3.23-1.39,.76-2.78,1.92-3.51,3.26-.27,.48,1.53,1.94,2.08,3.1,.28,.6-.12,1.53-.22,2.31-4.23-2.06-2.21-.15-1.54,1.99,.79,2.5-.51,5.01-2.89,6.2-2.62,1.31-3.46,2.88-3.12,5.83,.15,1.31-1.16,3.6-2.38,4.13-4.68,2.01-9.61,3.43-14.41,5.18-2.25,.82-4.42,1.85-6.61,2.82-2.97,1.31-5.83,3.07-8.94,3.82-2.48,.6-4.03,1.49-5.39,3.68-2.32,3.74-5.09,7.2-7.8,10.68-.63,.81-2.24,1.92-2.66,1.67-3.22-1.94-8.1-1.36-9.57-5.93-1.21-3.76-2.65-7.55-3.1-11.43-.37-3.19,1.12-6.12,4.78-7.17,.79-.23,1.48-.84,2.22-1.27-.77-.06-1.57-.01-2.3-.21-1.05-.28-2.05-.73-3.07-1.11,.42-.8,1.16-1.58,1.21-2.41,.24-3.97,1.18-8.2,.19-11.87-1.06-3.91-5.36-3.74-8.94-3.54-1.33,.07-2.68,.31-3.99,.17-1.41-.14-2.94-.35-4.12-1.04-1.42-.83-.04-1.89,.07-2.84,.39-3.34,0-3.43,3.28-4.12,2.11-.44,4.3-.6,6.38-1.13,.59-.15,1.41-1.29,1.31-1.81-.16-.81,.16-2.81-2.11-1.53-4.83,2.74-10.67,2.74-15.43,6.32-2.51,1.89-6,2.8-8.58,5.12-.78,.7-2.36,.75-3.56,.72-4.25-.12-8.49-.43-12.74-.57-.51-.02-1.04,.58-1.56,.9,.51,.3,1.03,.87,1.54,.85,2.97-.06,5.93-.4,8.89-.34,1.14,.03,2.26,.88,3.38,1.35-1.06,.82-2.02,2.14-3.19,2.36-2.07,.39-4.26,.11-6.4,.11l-.02,.36Z"/><path class="cls-1" d="M752.07,250.14c1.19,1.56,2.75,2.8,3.22,4.38,1.26,4.2,1.81,4.56,4.98,1.8,2.17-1.89,4.21-2.71,7.07-.97,2.37,1.45,5.39,1.84,7.77,3.28,4,2.43,7.73,5.29,11.52,8.06,.36,.27,.51,1.22,.36,1.74-1.23,4.28,1.75,5.84,4.66,7.54,.79,.46,1.39,1.22,2.08,1.85-1.06,.47-2.19,1.44-3.17,1.31-2.99-.4-5.53-1.45-7.23-4.51-2.2-3.95-3.89-3.7-7.14-.55-1.16,1.12-3.47,1.71-5.12,1.52-2.46-.3-4.84-1.43-7.16-2.42-.37-.16-.58-1.59-.31-2.18,1.65-3.59,1.19-5.38-2.2-7.03-2.23-1.09-4.47-2.64-6.81-2.88-2.85-.29-4.04-1.16-3.98-3.99,.01-.65-.65-1.34-1.09-1.95-.59-.84-1.27-1.61-1.91-2.42,1.25-.73,2.51-1.45,4.45-2.58Z"/><path class="cls-1" d="M694.01,247.97c.56-1.07,.91-2.77,1.63-2.95,7.36-1.85,11.45-7.67,16.15-12.8,.53-.58,2.05-.86,2.74-.53,1.29,.62,2.43,1.7,3.37,2.8,.34,.39,.24,1.69-.15,2.1-2.77,2.87-2.56,5.87-.41,8.84,.99,1.37,.59,1.57-.4,2.91-2.05,2.78-3.36,6.26-4.34,9.63-.95,3.28-2.28,4.07-5.19,2.26-.82-.51-1.82-.78-2.78-1.01-2.32-.54-5.71-.2-6.78-1.63-1.98-2.63-2.6-6.28-3.84-9.64Z"/><path class="cls-1" d="M553.19,291.6c-.98,2.96-1.95,6.07-3.05,9.13-1.91,5.31-3.68,10.68-5.97,15.82-.76,1.7-2.72,3.25-4.5,3.98-1.01,.42-3.82-.76-3.98-1.57-.6-3.12-.74-6.41-.51-9.59,.21-2.83,1.53-5.59,1.68-8.42,.19-3.47,1.23-5.55,4.51-7.43,3.08-1.77,5.19-5.2,7.75-7.9,.52-.55,1.09-1.04,1.63-1.56,.49,.64,1.24,1.22,1.43,1.95,.46,1.76,.67,3.59,1.01,5.59Z"/><path class="cls-1" d="M687.18,265.94c-6.54,.72-8.94-4.62-11.39-8.72-4.04-6.75-7.11-14.07-13.13-19.49-.64-.58-.78-1.71-1.16-2.59,1.04-.06,2.37-.56,3.08-.1,2.81,1.82,5.38,4.01,8.13,5.93,2.08,1.45,4.29,2.71,6.45,4.06l-.08-.08c1.31,2.51,2.46,5.12,4.01,7.47,.63,.96,2.05,1.82,3.19,1.93,2.61,.25,2.68,2.08,2.49,3.73-.32,2.67-1.09,5.28-1.67,7.91l.09-.07Z"/><path class="cls-1" d="M741.97,136.13c3.27-.72,6.67,2.23,6.87,5.97,.06,1.13-.07,2.28,.1,3.38,.34,2.26,1.62,4.78,.96,6.65-.43,1.21-4.09,.94-5.43,2.23-2.19,2.11-5.04,2.15-7.4,3.49-1.1,.62-2.29,1.4-2.92,2.43-.73,1.19,.17,3.81-2.59,3.01-1.93-.56-3.62-5.57-2.54-7.11,1.91-2.71,3.75-5.59,7.74-5.33,.49,.03,1.24,.08,1.44-.2,1.34-1.85,2.74-3.42,4.68-4.88,2.36-1.77,.94-4.84-.35-7.3-.37-.7-.33-1.61-.47-2.42l-.08,.06Z"/><path class="cls-1" d="M436.15,108.97c-4,.75-8,1.52-12,2.24-.61,.11-1.27-.02-1.9-.04,.17-.54,.26-1.13,.53-1.61,.58-1.03,2.64-1.95,.07-3.18-.14-.07,.61-2.64,1.34-3.79,2.34-3.69,2.41-3.64-2.08-4.56l.07,.1c0-.72,.31-1.69-.04-2.12-2.95-3.6-1.56-8.26,2.97-8.61,1.28-.1,4.14,2.78,3.91,3.38-1.97,5.04,2.69,6.92,4.48,10.03,2.42,4.21,2.7,4.23,2.6,8.23l.07-.08Z"/><path class="cls-1" d="M454.27,28.36c4.73-.45,9.46-1.09,14.2-1.26,1.92-.07,3.87,.92,5.81,1.43-1.92,.63-3.82,1.31-5.77,1.86-.75,.21-1.6,.11-2.4,.16,.7,.61,1.42,1.21,2.11,1.85,1,.92,1.98,1.87,2.97,2.81-1.48-.24-3.45,.03-4.33-.83-2.12-2.07-3.16-1.42-4.64,.61-2.29,3.13-3.86,3.14-6.55,.47-.78-.78-1.59-1.53-2.36-2.32-1.17-1.21-2.31-2.44-3.47-3.66,1.42-.53,2.83-1.05,4.25-1.58l.17,.47Z"/><path class="cls-1" d="M727.12,249.25c-.83,0-1.81-.28-2.46,.07-.96,.51-1.69,1.47-2.52,2.23,1.02,.22,2.03,.57,3.05,.62,.97,.04,1.96-.32,2.95-.32,.35,0,.89,.5,.98,.86,.09,.34-.26,1.13-.5,1.16-4.7,.65-1.96,3.39-1.57,5.46,.03,.16,.11,.32,.12,.48,.16,1.78,.32,3.55,.48,5.33-1.25-1.3-2.5-2.59-3.75-3.89-.51-.53-1.01-1.08-1.52-1.62-.06,.66-.11,1.32-.18,1.98-.11,.99-.1,2.02-.41,2.94-.16,.48-.92,1.08-1.37,1.05-.43-.03-1.11-.76-1.18-1.25-.63-4.73-.93-9.41,.89-14.04,1.04-2.63,2.25-4.3,5.44-3.63,1.6,.34,3.3,.18,4.95,.24,.8,.03,1.6,.07,2.4,.1-.62,.72-1.12,1.84-1.88,2.05-1.22,.35-2.62,.09-3.94,.09v.08Z"/><path class="cls-1" d="M530.05,54.52c-1.97-.75-4.29-1.54-6.51-2.56-.51-.23-1.03-1.28-.95-1.88,.86-6.42,5.55-10.93,11.99-11.89,2.1-.31,4.12-1.15,6.22-1.44,1.17-.16,2.42,.32,3.64,.5-.85,.76-1.58,1.78-2.57,2.25-2.95,1.38-6.39,2.02-8.92,3.9-4.5,3.33-4.38,5.19-.72,9.31,.29,.32,.44,.76,.66,1.15l-2.83,.66Z"/><path class="cls-1" d="M244.37,34.79c1.66,.23,3.82-.57,1.9,2.51-.35,.57,5.9,2.31,6.9,1.33,1.83-1.8,2.8-1.66,4.99,.13,2.25,1.84,.84,2.61-.22,2.74-6.24,.74-12.49,4.33-18.77,.23-.41-.27-.68-.78-1.1-.98-1.43-.68-2.91-1.27-4.37-1.9,1.68-.78,3.32-1.65,5.05-2.31,1.84-.7,3.76-1.18,5.64-1.76Z"/><path class="cls-1" d="M397.89,74.28c-4.38,.13-8.02-2.23-8.77-5.66-.14-.64,2.38-2.68,2.69-2.49,3.52,2.18,6.88-.33,10.22-.03,1.85,.17,3.58,1.53,5.37,2.35-1.06,1.23-1.9,2.87-3.23,3.58-2.15,1.15-4.63,1.68-6.29,2.24Z"/><path class="cls-1" d="M795.71,379.65c-1.1-.7-2.29-1.45-3.48-2.2,.72-.87,1.31-1.91,2.18-2.57,1.45-1.09,3.1-1.93,4.66-2.88,4.36-2.66,8.88-5.08,12.99-8.08,1.75-1.28,2.97-1.13,4.19-.08,.3,.26-.34,2.39-1.08,2.95-5.37,4.03-10.85,7.9-16.36,11.74-.77,.54-1.81,.67-3.11,1.12Z"/><path class="cls-1" d="M356.33,474.23c-1.97,0-3.04,.22-3.92-.09-.44-.16-.54-1.29-.79-1.98,2.5-.51,2.31-2.44,2.73-4.41,.54-2.59,6.35-3.17,9.15-1.06,.77,.58,1.37,1.41,2,2.16,2.16,2.55,1.86,3.56-1.34,4.17-2.91,.55-5.86,.91-7.82,1.2Z"/><path class="cls-1" d="M687.09,266.01c4.56,.63,8.7,3.24,13.63,2.54,1.57-.22,4.07-.18,5.2,2.37,.53,1.18,2.24,1.83,3.42,2.72-1.57-.02-3.16,.14-4.69-.09-4.88-.72-9.78-1.39-14.59-2.47-2.4-.54-5.45-1.47-2.88-5.14l-.09,.07Z"/><path class="cls-1" d="M832.06,355.02c-.32,.51-.55,1.21-1.02,1.59-3.33,2.67-6.69,5.32-10.12,7.86-.54,.4-1.5,.23-2.26,.33,.18-.57,.55-1.15,.5-1.7-.34-3.71,2.58-5.58,4.25-8.22,.99-1.56,.42-4.08,.7-6.15,.09-.67,.63-1.28,.96-1.92,.6,.48,1.56,.85,1.74,1.44,1.22,4.19,1.17,4.2,4.58,5.99,.24,.12,.38,.44,.67,.78Z"/><path class="cls-1" d="M717.51,204.93c.07-1.32-.05-2.68,.27-3.94,.23-.93,.98-2.37,1.59-2.42,.91-.06,2.44,.7,2.72,1.46,.57,1.59,1.06,3.62,.55,5.1-1.18,3.41-.01,4.81,3.18,5.59,.97,.24,1.71,1.4,2.55,2.14-1.05,.06-2.18-.08-3.13,.26-.84,.3-3.73-2.75-2.5,1.36,.08,.28-.39,1-.69,1.05-.34,.06-.98-.31-1.12-.65-1.36-3.26-2.65-6.55-3.96-9.83l.55-.14Z"/><path class="cls-1" d="M422.1,98.03c-.43,1.22-.98,2.41-1.27,3.67-.68,3-3.87,5.7-6.86,5.47-.66-.05-1.85-.82-1.81-1.13,.3-2.3,.13-5.24,1.48-6.71,2.1-2.29,5.2-4.32,8.52-1.21l-.07-.1Z"/><path class="cls-1" d="M253.84,195.67c-1.18-.81-2.49-1.66-3.75-2.58-4.03-2.92-7.86-6.41-13.51-4.27-.3,.11-.79-.3-1.2-.46,.23-.41,.35-1,.69-1.22,3.22-1.97,6.7-2.1,10.02-.61,3.15,1.4,6.11,3.26,9.07,5.05,1.05,.63,1.88,1.64,2.81,2.48l-4.14,1.61Z"/><path class="cls-1" d="M742.05,136.07c-1.51-1.99-4.27-3.7-1.46-6.67,.26-.27,.23-.96,.12-1.4-.3-1.2-.72-2.38-1.1-3.56,1.28,.57,2.56,1.13,3.84,1.71,1.05,.47,2.13,.9,3.13,1.46,1.27,.71,2.48,1.53,3.72,2.31-1.45,1.08-3.27,3.35-4.27,3.03-3.48-1.11-3.41,1.3-4.08,3.19l.08-.06Z"/><path class="cls-1" d="M732.21,234c-.62-.74-1.91-1.61-2.11-2.67-.49-2.59-1.94-2.17-3.59-1.61-.44,.15-.82,.48-1.23,.73-.04-.49-.3-1.21-.07-1.42,1.15-1.07,2.36-2.11,3.67-2.96,.62-.4,1.6-.2,2.27-.54,1.15-.59,2.85-2.22,3.17-1.97,1.93,1.54,1.87,5.78,.3,8.07-.44,.64-.57,1.47-.95,2.16-.09,.16-.6,.1-1.45,.21Z"/><path class="cls-1" d="M586.17,32.04c-4.08-1.05-7.89-1.96-11.63-3.08-.66-.2-1.51-1.3-1.47-1.94,.05-.74,.87-1.88,1.54-2.04,1.21-.29,2.65-.23,3.83,.15,2.74,.89,5.46,1.93,8.04,3.19,.86,.42,1.29,1.7,1.92,2.59-.78,.39-1.56,.79-2.23,1.12Z"/><path class="cls-1" d="M263.52,200.46c-.68-.13-1.49-.28-2.3-.43-1.11-.21-2.22-.41-3.33-.62,.73-.61,1.56-1.13,2.18-1.84,3.53-3.98,7.08-4.17,10.45-.37,.31,.35,.02,1.9-.23,1.96-2.2,.55-4.45,.88-6.78,1.3Z"/><path class="cls-1" d="M266.12,50.96l-2.15,1.09c-1.6-.41-3.47-.45-4.74-1.34-1.33-.93-4.78-3.17,.78-3.19,1.73,0,3.36-2.15,5.22-2.71,2.72-.82,4.18,0,2.44,3.08-.56,.99-1.03,2.04-1.55,3.06Z"/><path class="cls-1" d="M755.57,363.21c1.49,.37,3.96,.37,4.26,1.17,.65,1.76-5.42,7.09-7.11,6.35-.79-.35-1.67-2.23-1.38-2.99,.7-1.86-.73-6.38,4.23-4.53Z"/><path class="cls-1" d="M624.1,221.96c1.68,2.4,3.63,4.65,4.95,7.23,.94,1.82,.08,3.66-2.16,4.15-2.47,.55-2.74-1.38-2.8-3.03-.1-2.8,.04-5.61,.09-8.42l-.08,.07Z"/><path class="cls-1" d="M664.94,43.1c-.4-.06-1.35,.05-1.98-.34-1.42-.89-2.68-2.03-4.01-3.06,1.45-.16,2.9-.47,4.35-.44,2.43,.07,4.86,.28,7.27,.6,.69,.09,1.29,.8,1.93,1.23-.59,.47-1.12,1.22-1.77,1.35-1.76,.35-3.57,.43-5.78,.65Z"/></svg>